<?xml version="1.0" encoding="UTF-8"?>
<svg width="1200" height="1200" version="1.1" viewBox="0 0 317.5 317.5" xmlns="http://www.w3.org/2000/svg" xmlns:cc="http://creativecommons.org/ns#" xmlns:dc="http://purl.org/dc/elements/1.1/" xmlns:rdf="http://www.w3.org/1999/02/22-rdf-syntax-ns#">
<metadata>
<rdf:RDF>
<cc:Work rdf:about="">
<dc:format>image/svg+xml</dc:format>
<dc:type rdf:resource="http://purl.org/dc/dcmitype/StillImage"/>
<dc:title/>
</cc:Work>
</rdf:RDF>
</metadata>
<g fill="#09111c">
<path d="m33.867 101.79v73.544a4.1421 4.1421 22.5 0 0 7.0711 2.9289l13.921-13.921a10 10 1.8375e-6 0 1 14.142 0l79.402 79.402a10 10 180 0 0 14.142 0l23.276-23.276a10 10 90 0 0 0-14.142l-79.402-79.402a10 10 90 0 1 0-14.142l13.921-13.921a4.1421 4.1421 67.5 0 0-2.9289-7.0711h-73.544a10 10 135 0 0-10 10z" stop-color="#000000"/>
<path d="m276.06 231.38v-73.544a4.1421 4.1421 22.5 0 0-7.0711-2.9289l-13.921 13.921a10 10 1.8375e-6 0 1-14.142 0l-79.402-79.402a10 10 180 0 0-14.142 2e-6l-23.276 23.276a10 10 90 0 0 0 14.142l79.402 79.402a10 10 90 0 1 0 14.142l-13.921 13.921a4.1421 4.1421 67.5 0 0 2.9289 7.0711h73.544a10 10 135 0 0 10-10z" stop-color="#000000"/>
</g>
</svg>
